<svg xmlns="http://www.w3.org/2000/svg" viewBox="0 0 512 512" id="hotel">
  <rect width="349" height="128" x="81.5" y="7.5" fill="#f66" rx="15"></rect>
  <path fill="#ff4e4e" d="M415.5 7.5h-30a15 15 0 0 1 15 15v98a15 15 0 0 1-15 15h30a15 15 0 0 0 15-15v-98a15 15 0 0 0-15-15Z"></path>
  <path fill="#ffe966" d="m152.581 40.759 8.371 16.962a3 3 0 0 0 2.26 1.641l18.718 2.72a3 3 0 0 1 1.663 5.117l-13.546 13.203a3 3 0 0 0-.862 2.656l3.197 18.643a3 3 0 0 1-4.353 3.162l-16.742-8.802a3 3 0 0 0-2.792 0l-16.743 8.802a3 3 0 0 1-4.353-3.162l3.198-18.643a3 3 0 0 0-.863-2.656L116.19 67.2a3 3 0 0 1 1.663-5.117l18.718-2.72a3 3 0 0 0 2.26-1.641l8.37-16.962a3 3 0 0 1 5.381 0zm106.11 0 8.37 16.962a3 3 0 0 0 2.26 1.641l18.718 2.72a3 3 0 0 1 1.663 5.117l-13.545 13.203a3 3 0 0 0-.863 2.656l3.197 18.643a3 3 0 0 1-4.352 3.162l-16.743-8.802a3 3 0 0 0-2.792 0l-16.743 8.802a3 3 0 0 1-4.352-3.162l3.197-18.643a3 3 0 0 0-.863-2.656L222.298 67.2a3 3 0 0 1 1.663-5.117l18.719-2.72a3 3 0 0 0 2.258-1.641l8.372-16.962a3 3 0 0 1 5.38 0zm106.108.5 8.372 16.962a3 3 0 0 0 2.259 1.641l18.718 2.72a3 3 0 0 1 1.663 5.117l-13.545 13.203a3 3 0 0 0-.863 2.656l3.198 18.643a3 3 0 0 1-4.353 3.162l-16.743-8.802a3 3 0 0 0-2.792 0l-16.742 8.802a3 3 0 0 1-4.353-3.162l3.197-18.643a3 3 0 0 0-.862-2.656L328.407 67.7a3 3 0 0 1 1.663-5.117l18.719-2.72a3 3 0 0 0 2.259-1.641l8.371-16.962a3 3 0 0 1 5.38 0z"></path>
  <path fill="#ffe236" d="M333.373 65.903a3 3 0 0 0 2.26-1.64l1.322-2.681-6.885 1a3.002 3.002 0 0 0-2.33 4.14zm62.438 1.796a3 3 0 0 0-1.663-5.117l-18.718-2.72a3 3 0 0 1-2.26-1.641l-8.37-16.962a3 3 0 0 0-5.381 0l-6.508 13.187 4.844 9.816a3 3 0 0 0 2.259 1.641l18.719 2.72a3 3 0 0 1 1.663 5.117L366.85 86.943a3 3 0 0 0-.862 2.656l1.558 9.087 12.702 6.677a3 3 0 0 0 4.353-3.162l-3.198-18.643a3 3 0 0 1 .863-2.656zm-106.11-.5a3 3 0 0 0-1.662-5.117l-18.719-2.72a3 3 0 0 1-2.258-1.641l-8.372-16.962a3 3 0 0 0-5.38 0L246.8 53.946l4.845 9.816a3 3 0 0 0 2.259 1.641l18.718 2.72a3 3 0 0 1 1.663 5.117l-13.545 13.203a3 3 0 0 0-.863 2.656l1.559 9.087 12.702 6.677a3 3 0 0 0 4.353-3.162l-3.198-18.643a3 3 0 0 1 .863-2.656zm-106.108 0a3 3 0 0 0-1.663-5.117l-18.719-2.72a3 3 0 0 1-2.259-1.641l-8.371-16.962a3 3 0 0 0-5.38 0l-6.509 13.187 4.845 9.816a3 3 0 0 0 2.258 1.641l18.72 2.72a3 3 0 0 1 1.662 5.117l-13.545 13.203a3 3 0 0 0-.863 2.656l1.559 9.087 12.701 6.677a3 3 0 0 0 4.353-3.162l-3.197-18.643a3 3 0 0 1 .863-2.656zm164.497 35.403a3 3 0 0 0-2.792 0l-4.615 2.427a2.964 2.964 0 0 0 3.288.334l4.685-2.463z"></path>
  <path fill="#f2f2f2" d="M22.5 195.5h467v309h-467z"></path>
  <path fill="#eee" d="M444.5 195.5h45v309h-45zM114.195 135.5h33v60h-33zM364.805 135.5h33v60h-33z"></path>
  <path fill="#ffcd85" d="M217 372.5h78a15 15 0 0 1 15 15v117H202v-117a15 15 0 0 1 15-15Z"></path>
  <path fill="#ffc570" d="M295 372.5h-45a15 15 0 0 1 15 15v117h45v-117a15 15 0 0 0-15-15Z"></path>
  <rect width="497" height="30" x="7.5" y="165.5" fill="#676e87" rx="7"></rect>
  <path fill="#595f74" d="M497.5 165.5h-45a7 7 0 0 1 7 7v16a7 7 0 0 1-7 7h45a7 7 0 0 0 7-7v-16a7 7 0 0 0-7-7Z"></path>
  <rect width="81" height="87" x="67.5" y="240.5" fill="#66c1ff" rx="9"></rect>
  <rect width="81" height="87" x="67.5" y="372.5" fill="#66c1ff" rx="9"></rect>
  <rect width="81" height="87" x="363.5" y="240.5" fill="#66c1ff" rx="9"></rect>
  <rect width="81" height="87" x="363.5" y="372.5" fill="#66c1ff" rx="9"></rect>
  <rect width="81" height="87" x="215.5" y="240.5" fill="#66c1ff" rx="9"></rect>
  <path fill="#272a33" d="m289.117 54.66-16.377-2.38-7.324-14.841a10.501 10.501 0 0 0-18.832 0l-7.324 14.84-16.377 2.38a10.5 10.5 0 0 0-5.82 17.91l11.851 11.552-2.797 16.31a10.486 10.486 0 0 0 15.234 11.07l14.649-7.7 14.648 7.7a10.5 10.5 0 0 0 15.235-11.068l-2.797-16.312 11.852-11.552a10.5 10.5 0 0 0-5.82-17.91ZM270.92 75.032a10.496 10.496 0 0 0-3.018 9.293l1.656 9.656-8.671-4.559a10.501 10.501 0 0 0-9.774 0l-8.67 4.56 1.655-9.656a10.497 10.497 0 0 0-3.019-9.295l-7.017-6.839 9.697-1.408a10.496 10.496 0 0 0 7.905-5.744L256 52.254l4.335 8.784a10.496 10.496 0 0 0 7.907 5.746l9.695 1.408ZM183.008 54.66l-16.377-2.38-7.324-14.841a10.501 10.501 0 0 0-18.832 0l-7.325 14.84-16.377 2.38a10.5 10.5 0 0 0-5.819 17.91l11.85 11.552-2.796 16.31a10.486 10.486 0 0 0 15.234 11.07l14.649-7.7 14.648 7.7a10.5 10.5 0 0 0 15.234-11.068l-2.797-16.311 11.853-11.553a10.5 10.5 0 0 0-5.821-17.91ZM164.81 75.032a10.497 10.497 0 0 0-3.018 9.293l1.655 9.656-8.67-4.559a10.496 10.496 0 0 0-9.773 0l-8.672 4.56 1.655-9.656a10.497 10.497 0 0 0-3.018-9.295l-7.016-6.839 9.695-1.408a10.496 10.496 0 0 0 7.906-5.744l4.336-8.786 4.337 8.79a10.5 10.5 0 0 0 7.905 5.74l9.695 1.409ZM372.5 467h63a16.52 16.52 0 0 0 16.5-16.5v-69a16.52 16.52 0 0 0-16.5-16.5h-63a16.52 16.52 0 0 0-16.5 16.5v69a16.52 16.52 0 0 0 16.5 16.5Zm39-87h24a1.502 1.502 0 0 1 1.5 1.5v27h-25.5Zm0 43.5H437v27a1.502 1.502 0 0 1-1.5 1.5h-24Zm-40.5-42a1.502 1.502 0 0 1 1.5-1.5h24v28.5H371Zm0 42h25.5V452h-24a1.502 1.502 0 0 1-1.5-1.5ZM497.5 203a14.517 14.517 0 0 0 14.5-14.5v-16a14.517 14.517 0 0 0-14.5-14.5h-92.195v-15H415.5a22.526 22.526 0 0 0 22.5-22.5v-98A22.526 22.526 0 0 0 415.5 0h-319A22.526 22.526 0 0 0 74 22.5v98A22.526 22.526 0 0 0 96.5 143h10.195v15H14.5A14.517 14.517 0 0 0 0 172.5v16A14.517 14.517 0 0 0 14.5 203h.5v294H7.5a7.5 7.5 0 0 0 0 15h497a7.5 7.5 0 1 0 0-15H497V203Zm-401-75a7.508 7.508 0 0 1-7.5-7.5v-98a7.508 7.508 0 0 1 7.5-7.5h319a7.508 7.508 0 0 1 7.5 7.5v98a7.508 7.508 0 0 1-7.5 7.5Zm293.805 15v15h-18v-15Zm-33 0v15h-202.61v-15Zm-217.61 0v15h-18v-15ZM302.5 497h-93V387.5a7.508 7.508 0 0 1 7.5-7.5h78a7.508 7.508 0 0 1 7.5 7.5Zm179.5 0H317.5V387.5A22.526 22.526 0 0 0 295 365h-78a22.526 22.526 0 0 0-22.5 22.5V497H30V203h452ZM15 188v-15h482v15Zm209.5 147h63a16.52 16.52 0 0 0 16.5-16.5v-69a16.519 16.519 0 0 0-16.5-16.5h-63a16.519 16.519 0 0 0-16.5 16.5v69a16.52 16.52 0 0 0 16.5 16.5Zm39-87h24a1.502 1.502 0 0 1 1.5 1.5v27h-25.5Zm0 43.5H289v27a1.502 1.502 0 0 1-1.5 1.5h-24Zm-40.5-42a1.502 1.502 0 0 1 1.5-1.5h24v28.5H223Zm0 42h25.5V320h-24a1.502 1.502 0 0 1-1.5-1.5ZM76.5 335h63a16.52 16.52 0 0 0 16.5-16.5v-69a16.519 16.519 0 0 0-16.5-16.5h-63A16.519 16.519 0 0 0 60 249.5v69A16.52 16.52 0 0 0 76.5 335Zm39-87h24a1.502 1.502 0 0 1 1.5 1.5v27h-25.5Zm0 43.5H141v27a1.502 1.502 0 0 1-1.5 1.5h-24Zm-40.5-42a1.502 1.502 0 0 1 1.5-1.5h24v28.5H75Zm0 42h25.5V320h-24a1.502 1.502 0 0 1-1.5-1.5ZM372.5 335h63a16.52 16.52 0 0 0 16.5-16.5v-69a16.519 16.519 0 0 0-16.5-16.5h-63a16.519 16.519 0 0 0-16.5 16.5v69a16.52 16.52 0 0 0 16.5 16.5Zm39-87h24a1.502 1.502 0 0 1 1.5 1.5v27h-25.5Zm0 43.5H437v27a1.502 1.502 0 0 1-1.5 1.5h-24Zm-40.5-42a1.502 1.502 0 0 1 1.5-1.5h24v28.5H371Zm0 42h25.5V320h-24a1.502 1.502 0 0 1-1.5-1.5ZM76.5 467h63a16.52 16.52 0 0 0 16.5-16.5v-69a16.52 16.52 0 0 0-16.5-16.5h-63A16.52 16.52 0 0 0 60 381.5v69A16.52 16.52 0 0 0 76.5 467Zm39-87h24a1.502 1.502 0 0 1 1.5 1.5v27h-25.5Zm0 43.5H141v27a1.502 1.502 0 0 1-1.5 1.5h-24Zm-40.5-42a1.502 1.502 0 0 1 1.5-1.5h24v28.5H75Zm0 42h25.5V452h-24a1.502 1.502 0 0 1-1.5-1.5ZM395.226 55.16l-16.377-2.38-7.324-14.841a10.501 10.501 0 0 0-18.832 0l-7.324 14.84-16.377 2.38a10.5 10.5 0 0 0-5.82 17.91l11.851 11.553-2.797 16.31a10.486 10.486 0 0 0 15.235 11.07l14.648-7.702 14.649 7.701a10.5 10.5 0 0 0 15.234-11.068l-2.797-16.312 11.85-11.551a10.5 10.5 0 0 0-5.819-17.91ZM377.03 75.532a10.496 10.496 0 0 0-3.017 9.293l1.655 9.656-8.672-4.559a10.501 10.501 0 0 0-9.772 0l-8.671 4.56 1.655-9.656a10.499 10.499 0 0 0-3.02-9.295l-7.015-6.838 9.697-1.41a10.503 10.503 0 0 0 7.904-5.743l4.336-8.786 4.335 8.784a10.496 10.496 0 0 0 7.907 5.746l9.695 1.408Z"></path>
</svg>
